<?xml version="1.0" encoding="utf-8"?>
<!-- Generator: Adobe Illustrator 19.0.0, SVG Export Plug-In . SVG Version: 6.00 Build 0)  -->
<svg version="1.1" id="Layer_1" xmlns="http://www.w3.org/2000/svg" xmlns:xlink="http://www.w3.org/1999/xlink" x="0px" y="0px"
	 viewBox="0 0 1000 1000" style="enable-background:new 0 0 1000 1000;" xml:space="preserve">
<style type="text/css">
	.st0{fill:#4DBA87;}
	.st1{fill:#435466;}
</style>
<g id="XMLID_4_" transform="matrix(1.3333333 0 0 -1.3333333 0 400)">
	<path id="XMLID_2_" class="st0" d="M432.2,95.4L376.1-1.7L320,95.4H133.4l242.7-420.2L618.8,95.4H432.2z"/>
	<path id="XMLID_1_" class="st1" d="M432.2,95.4L376.1-1.7L320,95.4h-89.5l145.6-252.1L521.7,95.4H432.2z"/>
</g>
<path id="XMLID_5_" class="st0" d="M460.7,31.8c24.7-13.5,56.9-13.6,81.5,0C666.4,99,790.5,166.1,914.6,233.4
	c23.3,12.6,39,37.5,38.7,63.3V701c0.2,26.8-17,52.3-41.6,64.6c-123.7,66.8-247.3,133.8-371,200.6c-25.2,13.8-58,12.7-82.4-2.2
	c-37.1-20.6-74.2-41.1-111.3-61.7c-7.6-4.3-16.1-7.8-21.5-14.8c4.7-6.1,13.2-6.9,20.1-9.5c15.5-4.7,29.7-12.3,43.9-19.6
	c3.6-2.4,8-1.5,11.4,0.7c31.7,17.4,63.1,35.4,95,52.6c6.8,3.8,13.7-1.2,19.5-4.3c121.4-65.7,242.9-131.3,364.3-197
	c4.5-2.1,7-6.6,6.6-11.4c0.1-133.4,0-266.8,0-400.2c0.5-5.4-2.7-10.3-7.8-12.5C755.2,219.7,632,153.1,508.8,86.5
	c-4.4-2.9-10.1-2.9-14.5,0C371,153.1,247.8,219.7,124.5,286.3c-5,2.2-8.4,7-7.8,12.4c0,133.4,0,266.8,0,400.2
	c-0.4,4.7,2.2,9.2,6.7,11.2c32.9,17.9,65.8,35.6,98.7,53.4c18.5,9.6,41.3,15.2,61.7,7.9c18-6.2,30.7-23.8,30.3-42.2
	c0.2-132.6-0.1-165.2,0.1-297.8c-0.5-5.9,5.4-10.8,11.3-10.2c15.8-0.1,31.6-0.2,47.4,0c6.6-0.1,11.1,6.2,10.3,12.1
	c-0.1,133.4,0.2,166.9-0.1,300.3c0,35.6-15.2,74.3-49.5,91.7c-42.3,21-94.6,16.5-136.3-3.6c-36.2-17.3-70.7-37.7-106.2-56.2
	c-24.7-12.2-41.8-37.8-41.6-64.7V296.6c-0.3-26.3,16-51.7,40-64.1C213.4,165.7,337.1,98.7,460.7,31.8z"/>
</svg>
