<?xml version="1.0" encoding="utf-8"?>
<!-- Generator: Adobe Illustrator 19.0.0, SVG Export Plug-In . SVG Version: 6.00 Build 0)  -->
<svg version="1.1" xmlns="http://www.w3.org/2000/svg" xmlns:xlink="http://www.w3.org/1999/xlink" x="0px" y="0px"
	 viewBox="0 0 1000 1000" style="enable-background:new 0 0 1000 1000;" xml:space="preserve">
<style type="text/css">
	.st0{fill:#4DBA87;}
	.st1{fill:#435466;}
	.st2{fill:#8CC84B;}
</style>
<g id="Layer_1">
	<g id="XMLID_4_" transform="matrix(1.3333333 0 0 -1.3333333 0 400)">
		<path id="XMLID_2_" class="st0" d="M432.2,95.4L376.1-1.7L320,95.4H133.4l242.7-420.2L618.8,95.4H432.2z"/>
		<path id="XMLID_1_" class="st1" d="M432.2,95.4L376.1-1.7L320,95.4h-89.5l145.6-252.1L521.7,95.4H432.2z"/>
	</g>
	<g id="XMLID_9_" transform="matrix(1.3333333 0 0 -1.3333333 0 400)">
		<path id="XMLID_11_" class="st0" d="M1430.1,254l-86.4-149.6L1257.2,254H969.8l373.9-647.2L1717.5,254H1430.1z"/>
		<path id="XMLID_10_" class="st1" d="M1430.1,254l-86.4-149.6L1257.2,254h-137.8l224.2-388.3L1567.9,254H1430.1z"/>
	</g>
	<g id="XMLID_16_" transform="matrix(1.3333333 0 0 -1.3333333 0 400)">
		<path id="XMLID_18_" class="st0" d="M1430.1-757.8l-86.4-149.6l-86.4,149.6H969.8l373.9-647.2l373.9,647.2H1430.1z"/>
		<path id="XMLID_17_" class="st1" d="M1430.1-757.8l-86.4-149.6l-86.4,149.6h-137.8l224.2-388.3l224.2,388.3H1430.1z"/>
	</g>
</g>
<g id="Layer_2">
	<path id="XMLID_5_" class="st0" d="M460.7,31.8c24.7-13.5,56.9-13.6,81.5,0C666.4,99,790.5,166.1,914.6,233.4
		c23.3,12.6,39,37.5,38.7,63.3V701c0.2,26.8-17,52.3-41.6,64.6c-123.7,66.8-247.3,133.8-371,200.6c-25.2,13.8-58,12.7-82.4-2.2
		c-37.1-20.6-74.2-41.1-111.3-61.7c-7.6-4.3-16.1-7.8-21.5-14.8c4.7-6.1,13.2-6.9,20.1-9.5c15.5-4.7,29.7-12.3,43.9-19.6
		c3.6-2.4,8-1.5,11.4,0.7c31.7,17.4,63.1,35.4,95,52.6c6.8,3.8,13.7-1.2,19.5-4.3c121.4-65.7,242.9-131.3,364.3-197
		c4.5-2.1,7-6.6,6.6-11.4c0.1-133.4,0-266.8,0-400.2c0.5-5.4-2.7-10.3-7.8-12.5C755.2,219.7,632,153.1,508.8,86.5
		c-4.4-2.9-10.1-2.9-14.5,0C371,153.1,247.8,219.7,124.5,286.3c-5,2.2-8.4,7-7.8,12.4c0,133.4,0,266.8,0,400.2
		c-0.4,4.7,2.2,9.2,6.7,11.2c32.9,17.9,65.8,35.6,98.7,53.4c18.5,9.6,41.3,15.2,61.7,7.9c18-6.2,30.7-23.8,30.3-42.2
		c0.2-132.6-0.1-165.2,0.1-297.8c-0.5-5.9,5.4-10.8,11.3-10.2c15.8-0.1,31.6-0.2,47.4,0c6.6-0.1,11.1,6.2,10.3,12.1
		c-0.1,133.4,0.2,166.9-0.1,300.3c0,35.6-15.2,74.3-49.5,91.7c-42.3,21-94.6,16.5-136.3-3.6c-36.2-17.3-70.7-37.7-106.2-56.2
		c-24.7-12.2-41.8-37.8-41.6-64.7V296.6c-0.3-26.3,16-51.7,40-64.1C213.4,165.7,337.1,98.7,460.7,31.8z"/>
	<line id="XMLID_6_" class="st2" x1="501" y1="-110" x2="501" y2="-1267"/>
	<g id="XMLID_3_">
		<path id="XMLID_8_" class="st2" d="M1750.7,31.8c24.7-13.5,56.9-13.6,81.5,0c124.1,67.2,248.3,134.3,372.4,201.6
			c23.3,12.6,39,37.5,38.7,63.3V701c0.2,26.8-17,52.3-41.6,64.6c-123.7,66.8-247.3,133.8-371,200.6c-25.2,13.8-58,12.7-82.4-2.2
			c-37.1-20.6-74.2-41.1-111.3-61.7c-7.6-4.3-16.1-7.8-21.5-14.8c4.7-6.1,13.2-6.9,20.1-9.5c15.5-4.7,29.7-12.3,43.9-19.6
			c3.6-2.4,8-1.5,11.4,0.7c31.7,17.4,63.1,35.4,95,52.6c6.8,3.8,13.7-1.2,19.5-4.3c121.4-65.7,242.9-131.3,364.3-197
			c4.5-2.1,7-6.6,6.6-11.4c0.1-133.4,0-266.8,0-400.2c0.5-5.4-2.7-10.3-7.8-12.5c-123.3-66.5-246.5-133.2-369.7-199.7
			c-4.4-2.9-10.1-2.9-14.5,0c-123.3,66.6-246.4,133.3-369.7,199.8c-5,2.2-8.4,7-7.8,12.4c0,133.4,0,266.8,0,400.2
			c-0.4,4.7,2.2,9.2,6.7,11.2c32.9,17.9,65.8,35.6,98.7,53.4c18.5,9.6,41.3,15.2,61.7,7.9c18-6.2,30.7-23.8,30.3-42.2
			c0.2-132.6-0.1-265.2,0.1-397.8c-0.5-5.9,5.4-10.8,11.3-10.2c15.8-0.1,31.6-0.2,47.4,0c6.6-0.1,11.1,6.2,10.3,12.1
			c-0.1,133.4,0.2,266.9-0.1,400.3c0,35.6-15.2,74.3-49.5,91.7c-42.3,21-94.6,16.5-136.3-3.6c-36.2-17.3-70.7-37.7-106.2-56.2
			c-24.7-12.2-41.8-37.8-41.6-64.7V296.6c-0.3-26.3,16-51.7,40-64.1C1503.4,165.7,1627.1,98.7,1750.7,31.8z"/>
		<path id="XMLID_7_" class="st2" d="M1858.6,311.9c53.9-3.3,111.7-2,160.2,23.5c37.6,19.5,58.4,60.5,59.1,100.5
			c-1,5.4-6.9,8.4-12.3,8c-15.7,0-31.3,0.2-47-0.1c-6.6,0.2-10.5-5.6-11.3-11.2c-4.5-19.1-15.4-38.1-34.2-47.3
			c-28.9-13.8-62.3-13.2-93.8-12.9c-23,1.2-47.7,3.1-67.2,16c-14.9,9.8-19.5,29.6-14.2,45.6c5,11.5,18.8,15.1,30.1,18.6
			c65,16.3,133.9,14.7,197.7,36.1c26.4,8.7,52.2,25.7,61.3,52.2c11.8,35.5,6.6,77.9-19.7,106.4c-21.4,23.5-52.5,36.2-83.6,43.2
			c-41.3,8.8-84.2,9.1-126.1,5.1c-39.4-4.3-80.5-14.2-110.9-40c-26-21.7-38.8-55.4-37.5-88c0.3-5.5,6-9.3,11.5-8.9
			c15.8-0.1,31.5-0.2,47.3,0c6.3-0.4,11,4.8,11.3,10.5c2.9,18.2,10.1,37.4,26.7,48.2c32,19.8,72.2,18.4,108.9,19
			c30.4-1.3,64.5-1.7,89.3-20.9c13.1-11,17-29.3,13.4-45.1c-3.8-13.3-18.4-19.6-30.9-23.6c-64.2-19.5-133.8-12.4-197.4-34.4
			c-25.8-8.7-50.8-25.3-60.7-50.7c-13.8-36-7.5-80.4,21.6-108C1778.7,326.2,1819.7,315.7,1858.6,311.9L1858.6,311.9z"/>
	</g>
	<line id="XMLID_6_" class="st2" x1="1791" y1="1042" x2="1791" y2="-115"/>
	<g id="XMLID_20_">
		<path id="XMLID_22_" class="st2" d="M1750.7,1380.8c24.7-13.5,56.9-13.6,81.5,0c124.1,67.2,248.3,134.3,372.4,201.6
			c23.3,12.6,39,37.5,38.7,63.3V2050c0.2,26.8-17,52.3-41.6,64.6c-123.7,66.8-247.3,133.8-371,200.6c-25.2,13.8-58,12.7-82.4-2.2
			c-37.1-20.6-74.2-41.1-111.3-61.7c-7.6-4.3-16.1-7.8-21.5-14.8c4.7-6.1,13.2-6.9,20.1-9.5c15.5-4.7,29.7-12.3,43.9-19.6
			c3.6-2.4,8-1.5,11.4,0.7c31.7,17.4,63.1,35.4,95,52.6c6.8,3.8,13.7-1.2,19.5-4.3c121.4-65.7,242.9-131.3,364.3-197
			c4.5-2.1,7-6.6,6.6-11.4c0.1-133.4,0-266.8,0-400.2c0.5-5.4-2.7-10.3-7.8-12.5c-123.3-66.5-246.5-133.2-369.7-199.7
			c-4.4-2.9-10.1-2.9-14.5,0c-123.3,66.6-246.4,133.3-369.7,199.8c-5,2.2-8.4,7-7.8,12.4c0,133.4,0,266.8,0,400.2
			c-0.4,4.7,2.2,9.2,6.7,11.2c32.9,17.9,65.8,35.6,98.7,53.4c18.5,9.6,41.3,15.2,61.7,7.9c18-6.2,30.7-23.8,30.3-42.2
			c0.2-132.6-0.1-265.2,0.1-397.8c-0.5-5.9,5.4-10.8,11.3-10.2c15.8-0.1,31.6-0.2,47.4,0c6.6-0.1,11.1,6.2,10.3,12.1
			c-0.1,133.4,0.2,266.9-0.1,400.3c0,35.6-15.2,74.3-49.5,91.7c-42.3,21-94.6,16.5-136.3-3.6c-36.2-17.3-70.7-37.7-106.2-56.2
			c-24.7-12.2-41.8-37.8-41.6-64.7v-404.3c-0.3-26.3,16-51.7,40-64.1C1503.4,1514.7,1627.1,1447.7,1750.7,1380.8z"/>
		<path id="XMLID_21_" class="st2" d="M1858.6,1660.9c53.9-3.3,111.7-2,160.2,23.5c37.6,19.5,58.4,60.5,59.1,100.5
			c-1,5.4-6.9,8.4-12.3,8c-15.7,0-31.3,0.2-47-0.1c-6.6,0.2-10.5-5.6-11.3-11.2c-4.5-19.1-15.4-38.1-34.2-47.3
			c-28.9-13.8-62.3-13.2-93.8-12.9c-23,1.2-47.7,3.1-67.2,16c-14.9,9.8-19.5,29.6-14.2,45.6c5,11.5,18.8,15.1,30.1,18.6
			c65,16.3,133.9,14.7,197.7,36.1c26.4,8.7,52.2,25.7,61.3,52.2c11.8,35.5,6.6,77.9-19.7,106.4c-21.4,23.5-52.5,36.2-83.6,43.2
			c-41.3,8.8-84.2,9.1-126.1,5.1c-39.4-4.3-80.5-14.2-110.9-40c-26-21.7-38.8-55.4-37.5-88c0.3-5.5,6-9.3,11.5-8.9
			c15.8-0.1,31.5-0.2,47.3,0c6.3-0.4,11,4.8,11.3,10.5c2.9,18.2,10.1,37.4,26.7,48.2c32,19.8,72.2,18.4,108.9,19
			c30.4-1.3,64.5-1.7,89.3-20.9c13.1-11,17-29.3,13.4-45.1c-3.8-13.3-18.4-19.6-30.9-23.6c-64.2-19.5-133.8-12.4-197.4-34.4
			c-25.8-8.7-50.8-25.3-60.7-50.7c-13.8-36-7.5-80.4,21.6-108C1778.7,1675.2,1819.7,1664.7,1858.6,1660.9L1858.6,1660.9z"/>
	</g>
	<line id="XMLID_19_" class="st2" x1="1791" y1="2391" x2="1791" y2="1234"/>
</g>
</svg>
